#!OML:ASF G:\JayActor3\Patient Classification 1\Patient 1\Session 5\male.ASF
:FULLY-SPECIFIED
:DEGREES
398
root -23.9005 17.7871 -5.41905 195.028 -87.9488 -198.983
lowerback 2.07455 -1.28736 -0.853362
upperback 1.08617 -1.74214 -0.39165
thorax -0.037086 -0.877579 0.112902
lowerneck -6.41475 0.819921 1.86107
upperneck 12.3806 0.64066 1.09494
head 4.77196 0.418503 0.0672546
rclavicle -4.00598e-015 -3.52843e-015
rhumerus -34.8388 -11.1906 -83.988
rradius 23.7505
rwrist 7.34803
rhand -17.0537 -10.2179
rfingers 7.12502
rthumb 9.18354 -39.9979
lclavicle -4.00598e-015 -3.52843e-015
lhumerus -31.1796 4.69649 84.0968
lradius 26.6565
lwrist 17.0793
lhand -19.9999 13.0193
lfingers 7.12502
lthumb 6.33991 42.9044
rfemur -23.871 3.49465 19.0848
rtibia 39.8454
rfoot -8.44537 -16.5792
rtoes -5.99528
lfemur 10.7244 7.28862 -20.6686
ltibia 14.7
lfoot 9.26007 -10.6903
ltoes -18.6466
399
root -23.799 17.7749 -5.40817 193.232 -88.092 -197.267
lowerback 2.06905 -1.33662 -0.836829
upperback 1.0892 -1.80725 -0.362217
thorax -0.029937 -0.91013 0.134848
lowerneck -6.38167 0.809856 1.87187
upperneck 12.3394 0.623577 1.12518
head 4.75364 0.412033 0.0735812
rclavicle -6.83167e-015 2.48481e-016
rhumerus -34.9111 -11.5692 -83.7813
rradius 23.4117
rwrist 7.72959
rhand -17.1223 -10.2212
rfingers 7.12502
rthumb 9.11735 -40.0041
lclavicle -6.83167e-015 2.48481e-016
lhumerus -31.2869 4.82834 84.0424
lradius 26.2998
lwrist 16.8652
lhand -20.0092 13.0015
lfingers 7.12502
lthumb 6.33091 42.8869
rfemur -23.5104 3.09377 19.367
rtibia 41.4987
rfoot -9.20132 -17.2698
rtoes -5.69383
lfemur 9.70853 7.21241 -20.6521
ltibia 16.0918
lfoot 8.58397 -10.7123
ltoes -18.6783
400
root -23.6986 17.7619 -5.39959 191.122 -88.2127 -195.216
lowerback 2.02504 -1.37282 -0.839319
upperback 1.09147 -1.85478 -0.333852
thorax -0.00155841 -0.934007 0.164937
lowerneck -6.35398 0.793263 1.88096
upperneck 12.2949 0.596508 1.16643
head 4.73514 0.401255 0.0830124
rclavicle 9.18214e-015 -2.48481e-016
rhumerus -34.9949 -11.9289 -83.5916
rradius 23.0989
rwrist 8.03463
rhand -17.2293 -10.233
rfingers 7.12502
rthumb 9.01409 -40.0204
lclavicle 9.18214e-015 -2.48481e-016
lhumerus -31.3921 4.98039 83.9703
lradius 25.9407
lwrist 16.6308
lhand -19.9803 13.0157
lfingers 7.12502
lthumb 6.35881 42.9002
rfemur -23.1465 2.81719 19.6417
rtibia 43.2226
rfoot -9.69662 -17.7648
rtoes -5.43296
lfemur 8.69856 7.17272 -20.6124
ltibia 17.4223
lfoot 8.01179 -10.7771
ltoes -18.5386
401
root -23.5994 17.7481 -5.39266 189.124 -88.3114 -193.26
lowerback 1.95201 -1.39961 -0.865536
upperback 1.08935 -1.88981 -0.311869
thorax 0.0390472 -0.951724 0.200735
lowerneck -6.31853 0.773829 1.8876
upperneck 12.2474 0.564381 1.22069
head 4.71439 0.388524 0.0965252
rclavicle 3.03193e-014 5.76476e-015
rhumerus -35.0979 -12.2548 -83.4248
rradius 22.8207
rwrist 8.26172
rhand -17.3728 -10.1994
rfingers 7.12502
rthumb 8.87561 -39.9927
lclavicle 3.03193e-014 5.76476e-015
lhumerus -31.507 5.15056 83.8769
lradius 25.5875
lwrist 16.3879
lhand -19.9419 13.0316
lfingers 7.12502
lthumb 6.39591 42.915
rfemur -22.7678 2.64777 19.8969
rtibia 44.9957
rfoot -9.94769 -18.0163
rtoes -5.23387
lfemur 7.71259 7.16336 -20.5634
ltibia 18.6723
lfoot 7.52559 -10.913
ltoes -18.3233
402
root -23.5017 17.7335 -5.38658 187.736 -88.3932 -191.907
lowerback 1.86055 -1.42062 -0.915491
upperback 1.0813 -1.91728 -0.301724
thorax 0.0842576 -0.965718 0.237076
lowerneck -6.27131 0.752672 1.89089
upperneck 12.2033 0.528697 1.28732
head 4.69266 0.37444 0.114146
rclavicle -2.21878e-014 -2.68359e-015
rhumerus -35.2179 -12.5354 -83.2862
rradius 22.5667
rwrist 8.41169
rhand -17.5473 -10.0868
rfingers 7.12502
rthumb 8.70724 -39.8872
lclavicle -2.21878e-014 -2.68359e-015
lhumerus -31.6444 5.33779 83.7602
lradius 25.2514
lwrist 16.1475
lhand -19.8866 13.0704
lfingers 7.12502
lthumb 6.44928 42.9522
rfemur -22.3545 2.55044 20.1218
rtibia 46.7923
rfoot -9.94079 -18.0056
rtoes -5.29689
lfemur 6.77408 7.17868 -20.5189
ltibia 19.827
lfoot 7.12948 -11.114
ltoes -18.0342
403
root -23.4055 17.7183 -5.38135 186.481 -88.4554 -190.683
lowerback 1.75499 -1.43238 -0.970474
upperback 1.06918 -1.93221 -0.299491
thorax 0.132991 -0.973453 0.267544
lowerneck -6.22038 0.728273 1.89111
upperneck 12.1663 0.48784 1.36104
head 4.6725 0.357993 0.134159
rclavicle -2.04577e-014 3.37934e-015
rhumerus -35.3515 -12.7816 -83.1688
rradius 22.3354
rwrist 8.50729
rhand -17.7306 -9.90916
rfingers 7.12502
rthumb 8.53036 -39.7169
lclavicle -2.04577e-014 3.37934e-015
lhumerus -31.7961 5.53298 83.6254
lradius 24.9302
lwrist 15.9217
lhand -19.823 13.1244
lfingers 7.12502
lthumb 6.51072 43.0044
rfemur -21.8962 2.51744 20.34
rtibia 48.5813
rfoot -9.7164 -17.7634
rtoes -5.53584
lfemur 5.89477 7.21718 -20.4618
ltibia 20.8739
lfoot 6.82792 -11.3702
ltoes -17.6792
404
root -23.3111 17.7027 -5.3761 185.565 -88.5094 -189.805
lowerback 1.64104 -1.44325 -1.02375
upperback 1.05429 -1.94572 -0.30778
thorax 0.183193 -0.980445 0.286048
lowerneck -6.16911 0.704326 1.88818
upperneck 12.1475 0.446387 1.4411
head 4.65789 0.341423 0.156637
rclavicle -6.29588e-015 -4.96962e-016
rhumerus -35.4946 -12.9975 -83.0683
rradius 22.1196
rwrist 8.58917
rhand -17.888 -9.70255
rfingers 7.12502
rthumb 8.37843 -39.5164
lclavicle -6.29588e-015 -4.96962e-016
lhumerus -31.9713 5.74118 83.4668
lradius 24.6308
lwrist 15.7154
lhand -19.7524 13.1911
lfingers 7.12502
lthumb 6.57884 43.069
rfemur -21.3693 2.50736 20.5468
rtibia 50.3308
rfoot -9.33144 -17.313
rtoes -5.74626
lfemur 5.09363 7.26972 -20.3994
ltibia 21.8034
lfoot 6.60642 -11.6738
ltoes -17.3063
405
root -23.2188 17.6872 -5.37077 184.829 -88.5551 -189.112
lowerback 1.52459 -1.45344 -1.0677
upperback 1.03078 -1.95805 -0.32524
thorax 0.225333 -0.986708 0.289991
lowerneck -6.10261 0.683972 1.88403
upperneck 12.1464 0.409064 1.52326
head 4.64619 0.326746 0.180177
rclavicle 1.17687e-014 2.88238e-015
rhumerus -35.6554 -13.1957 -82.975
rradius 21.9126
rwrist 8.68873
rhand -18.0069 -9.49517
rfingers 7.12502
rthumb 8.26364 -39.3135
lclavicle 1.17687e-014 2.88238e-015
lhumerus -32.1807 5.96067 83.2836
lradius 24.352
lwrist 15.5247
lhand -19.6758 13.2531
lfingers 7.12502
lthumb 6.65275 43.1285
rfemur -20.7618 2.5112 20.7514
rtibia 52.0076
rfoot -8.82847 -16.7195
rtoes -5.97447
lfemur 4.37388 7.33089 -20.3285
ltibia 22.6128
lfoot 6.4601 -12.0064
ltoes -16.9153
406
root -23.1287 17.6725 -5.36527 184.176 -88.597 -188.511
lowerback 1.40508 -1.4623 -1.09627
upperback 1.00503 -1.96832 -0.350459
thorax 0.266097 -0.99183 0.277305
lowerneck -6.05461 0.663437 1.87841
upperneck 12.1797 0.370599 1.6004
head 4.64819 0.311363 0.202478
rclavicle -1.08679e-014 -3.27995e-015
rhumerus -35.8205 -13.3844 -82.8853
rradius 21.7129
rwrist 8.81288
rhand -18.0772 -9.34807
rfingers 7.12502
rthumb 8.19581 -39.1691
lclavicle -1.08679e-014 -3.27995e-015
lhumerus -32.4091 6.17603 83.0847
lradius 24.0871
lwrist 15.3576
lhand -19.5912 13.3089
lfingers 7.12502
lthumb 6.73448 43.1818
rfemur -20.0632 2.52058 20.9588
rtibia 53.5816
rfoot -8.25647 -16.0624
rtoes -6.03386
lfemur 3.74113 7.39047 -20.2492
ltibia 23.2967
lfoot 6.39444 -12.3438
ltoes -16.4616
407
root -23.0409 17.6589 -5.35983 183.472 -88.6391 -187.865
lowerback 1.28186 -1.47187 -1.10943
upperback 0.975631 -1.97926 -0.381334
thorax 0.30449 -0.997173 0.250157
lowerneck -6.01581 0.645047 1.86926
upperneck 12.2427 0.334015 1.67684
head 4.66087 0.296836 0.225332
rclavicle 2.16178e-015 -2.18663e-015
rhumerus -35.9935 -13.5659 -82.7972
rradius 21.5208
rwrist 8.97175
rhand -18.0977 -9.26958
rfingers 7.12502
rthumb 8.17601 -39.0914
lclavicle 2.16178e-015 -2.18663e-015
lhumerus -32.6586 6.39729 82.8648
lradius 23.8333
lwrist 15.2014
lhand -19.5147 13.3379
lfingers 7.12502
lthumb 6.80833 43.2084
rfemur -19.2661 2.53095 21.176
rtibia 55.0247
rfoot -7.66965 -15.4057
rtoes -6.09241
lfemur 3.19232 7.44167 -20.1584
ltibia 23.8555
lfoot 6.40345 -12.6855
ltoes -15.9818
408
root -22.9552 17.6471 -5.35461 182.576 -88.6819 -187.026
lowerback 1.15232 -1.48022 -1.10622
upperback 0.941082 -1.98829 -0.414192
thorax 0.340495 -1.00143 0.211705
lowerneck -5.99877 0.626348 1.8577
upperneck 12.3377 0.29666 1.74431
head 4.6871 0.281624 0.245904
rclavicle 3.82598e-014 8.94531e-016
rhumerus -36.1714 -13.7302 -82.7152
rradius 21.3415
rwrist 9.13285
rhand -18.0841 -9.26661
rfingers 7.12502
rthumb 8.18915 -39.0879
lclavicle 3.82598e-014 8.94531e-016
lhumerus -32.9248 6.61659 82.6324
lradius 23.5907
lwrist 15.0548
lhand -19.4374 13.3641
lfingers 7.12502
lthumb 6.8829 43.2322
rfemur -18.3785 2.54129 21.4079
rtibia 56.3138
rfoot -7.06241 -14.8026
rtoes -6.15532
lfemur 2.71407 7.48037 -20.0559
ltibia 24.2912
lfoot 6.49806 -13.0139
ltoes -15.4251
409
root -22.8713 17.6376 -5.35012 181.16 -88.7244 -185.66
lowerback 1.00775 -1.48707 -1.08903
upperback 0.905886 -1.99497 -0.444234
thorax 0.383843 -1.00447 0.167853
lowerneck -5.99673 0.611111 1.84041
upperneck 12.4518 0.264107 1.80687
head 4.72176 0.268475 0.266265
rclavicle 1.52816e-014 2.38542e-015
rhumerus -36.3491 -13.896 -82.6258
rradius 21.1766
rwrist 9.33829
rhand -18.0381 -9.28101
rfingers 7.12502
rthumb 8.23357 -39.1006
lclavicle 1.52816e-014 2.38542e-015
lhumerus -33.1973 6.84452 82.3866
lradius 23.3565
lwrist 14.9039
lhand -19.378 13.3811
lfingers 7.12502
lthumb 6.94027 43.2473
rfemur -17.4042 2.55695 21.6643
rtibia 57.4299
rfoot -6.41616 -14.2749
rtoes -6.19045
lfemur 2.29565 7.51455 -19.9324
ltibia 24.6119
lfoot 6.66968 -13.3331
ltoes -14.8298
410
root -22.789 17.6308 -5.34599 179.723 -88.7745 -184.263
lowerback 0.847394 -1.49553 -1.0653
upperback 0.867273 -2.00357 -0.475259
thorax 0.432294 -1.00842 0.118923
lowerneck -6.00299 0.59887 1.81705
upperneck 12.5747 0.236057 1.86646
head 4.76054 0.257243 0.287016
rclavicle -5.0423e-014 3.37934e-015
rhumerus -36.5262 -14.0463 -82.5407
rradius 21.0291
rwrist 9.54632
rhand -17.9708 -9.2848
rfingers 7.12502
rthumb 8.29854 -39.1018
lclavicle -5.0423e-014 3.37934e-015
lhumerus -33.4763 7.08797 82.1257
lradius 23.1305
lwrist 14.7364
lhand -19.3316 13.3991
lfingers 7.12502
lthumb 6.98506 43.2639
rfemur -16.3521 2.55857 21.9252
rtibia 58.3609
rfoot -5.70592 -13.7942
rtoes -6.26725
lfemur 1.92121 7.55447 -19.8038
ltibia 24.8277
lfoot 6.9158 -13.6476
ltoes -14.2346
411
root -22.7082 17.6268 -5.34268 178.387 -88.8243 -182.949
lowerback 0.663765 -1.50051 -1.04423
upperback 0.826901 -2.00725 -0.506261
thorax 0.492021 -1.00995 0.0708077
lowerneck -6.00693 0.586389 1.79199
upperneck 12.6882 0.209521 1.91674
head 4.79605 0.24613 0.305243
rclavicle -2.168e-014 -6.55989e-015
rhumerus -36.7067 -14.1845 -82.4582
rradius 20.9114
rwrist 9.74032
rhand -17.8965 -9.2794
rfingers 7.12502
rthumb 8.37023 -39.0935
lclavicle -2.168e-014 -6.55989e-015
lhumerus -33.7561 7.34122 81.8559
lradius 22.9137
lwrist 14.5562
lhand -19.3051 13.4245
lfingers 7.12502
lthumb 7.01068 43.2884
rfemur -15.235 2.55814 22.1879
rtibia 59.0999
rfoot -4.89783 -13.3377
rtoes -6.29163
lfemur 1.57473 7.62158 -19.6727
ltibia 24.9537
lfoot 7.24107 -13.9526
ltoes -13.6118
412
root -22.6285 17.6254 -5.3399 177.379 -88.8767 -181.945
lowerback 0.456317 -1.50403 -1.02853
upperback 0.786854 -2.00869 -0.538345
thorax 0.565557 -1.01045 0.0238516
lowerneck -6.02131 0.572459 1.76379
upperneck 12.7914 0.182491 1.9613
head 4.83018 0.234444 0.322217
rclavicle -4.16827e-014 -1.21259e-014
rhumerus -36.8829 -14.3059 -82.3812
rradius 20.8275
rwrist 9.92198
rhand -17.8115 -9.28734
rfingers 7.12502
rthumb 8.45224 -39.0982
lclavicle -4.16827e-014 -1.21259e-014
lhumerus -34.0274 7.61157 81.5758
lradius 22.7019
lwrist 14.3604
lhand -19.2926 13.4439
lfingers 7.12502
lthumb 7.02275 43.3074
rfemur -14.066 2.54886 22.4407
rtibia 59.6451
rfoot -3.9634 -12.8632
rtoes -6.24304
lfemur 1.24337 7.72905 -19.5473
ltibia 25.0057
lfoot 7.64789 -14.2434
ltoes -12.9326
